<svg width="60" height="60" viewBox="0 0 60 60" fill="none" xmlns="http://www.w3.org/2000/svg">
<path fill-rule="evenodd" clip-rule="evenodd" d="M29.1988 11.8328C31.9078 11.7188 34.6103 12.1812 37.1273 13.1893C39.3002 14.0185 42.0966 15.8571 43.6759 17.6207C44.1581 18.1628 44.5009 18.5143 44.9874 19.1571C47.2199 22.048 48.5016 25.5599 48.6559 29.2093C49.1102 39.495 40.8388 47.7621 30.8295 48.1671C15.6859 48.7778 6.12021 32.6164 14.3295 20.0957C15.2503 18.7332 16.3445 17.4964 17.5845 16.4164C20.8695 13.68 24.5552 12.0407 29.1988 11.8328ZM28.3116 41.295C29.2566 41.0164 29.9702 40.9607 31.0395 40.8664L30.8466 40.59C30.3214 40.5613 29.7947 40.5836 29.2738 40.6564C28.8452 40.7464 28.4338 40.9735 28.3116 41.2993V41.295ZM31.6374 40.5814L31.7659 40.7957C33.2916 40.6371 33.3495 39.3493 32.7281 38.4664L32.5781 38.3207C32.6059 38.835 32.8502 39.3493 32.6466 39.87C32.4324 40.4678 31.8109 40.4743 31.6374 40.5921V40.5814ZM21.2574 23.8093C21.5552 23.7707 21.9324 23.6357 22.2516 23.5607C22.5709 23.4857 22.8774 23.4321 23.2374 23.3464L23.0574 22.47C22.7552 22.5493 21.4159 23.5007 21.2574 23.7985V23.8093ZM23.8652 31.095C23.6509 30.9771 20.0081 30.1971 19.4424 30.0621C18.3966 29.8178 15.9302 29.205 15.0174 29.0614L14.9552 29.3571L23.8181 31.365L23.8652 31.095ZM24.7524 32.9271C24.6715 32.8451 24.5647 32.7937 24.4502 32.7814C24.3516 33.0793 23.5566 34.5771 23.3488 34.9971L21.1588 39.3278C20.9916 39.6557 20.1324 41.3057 20.0874 41.5157L20.3681 41.6271L24.7524 32.9271ZM23.7709 25.1271C23.9852 26.1985 24.7009 29.3485 24.8102 30.1757L25.1424 30.1285L23.0166 19.9885L22.7509 20.0228C22.7102 20.3164 23.6316 24.4778 23.7709 25.1164V25.1271ZM14.6166 27.8743C14.8309 27.7157 16.8988 25.2857 17.3102 24.8443C17.6188 24.5164 17.9081 24.1885 18.2059 23.8393C18.8831 23.0421 20.3188 21.4971 20.8631 20.8093C21.1309 20.4685 21.5059 20.13 21.7352 19.7957C21.6739 19.7198 21.6017 19.6534 21.5209 19.5985C21.2895 19.7678 20.8481 20.3507 20.6102 20.6057L19.2859 22.1207C19.1466 22.2664 18.9902 22.4657 18.8445 22.6285C18.5316 22.98 18.2745 23.2714 17.9552 23.6357C17.6531 23.9571 17.3531 24.3085 17.0681 24.6471L16.1788 25.6521C16.0288 25.8107 15.8831 25.9928 15.7502 26.1621L14.4131 27.6878L14.6166 27.8743ZM21.0002 43.1764C21.1459 43.2385 32.3424 44.7192 32.5224 44.6978L32.5566 44.4043L21.0174 42.8935L21.0002 43.1764ZM18.5188 40.0178C17.5374 37.8235 16.4402 35.2007 15.4888 32.9614C15.1802 32.2221 14.5009 30.7457 14.2866 30.135L13.9845 30.2271C14.0424 30.5421 14.4559 31.3564 14.5995 31.7014C15.7716 34.5171 17.0445 37.3478 18.2424 40.17C18.3881 40.5257 18.6709 41.3121 18.8852 41.5778L19.1359 41.475C19.1059 41.2435 18.6709 40.3114 18.5381 40.0178H18.5188ZM18.4288 43.0071C18.4792 43.3041 18.6448 43.5693 18.8895 43.745C19.1342 43.9207 19.4384 43.9928 19.7359 43.9457C21.1695 43.7485 20.9252 41.5543 19.3995 41.7471C19.2529 41.7659 19.1115 41.8134 18.9833 41.8869C18.8552 41.9604 18.7428 42.0585 18.6526 42.1756C18.5624 42.2927 18.4962 42.4264 18.4578 42.569C18.4194 42.7117 18.4095 42.8606 18.4288 43.0071ZM24.1588 31.8085C24.2366 32.0936 24.421 32.3378 24.6739 32.4906C24.9268 32.6434 25.2288 32.693 25.5174 32.6293C26.9681 32.3228 26.5095 30.1178 25.0009 30.4628C24.8564 30.4944 24.7197 30.5544 24.5988 30.6396C24.4778 30.7247 24.3751 30.8331 24.2967 30.9585C24.2182 31.0838 24.1656 31.2236 24.1419 31.3696C24.1182 31.5156 24.124 31.6648 24.1588 31.8085ZM23.6959 18.8571C23.7298 18.7145 23.735 18.5666 23.7112 18.422C23.6874 18.2774 23.6352 18.139 23.5574 18.0147C23.4796 17.8905 23.3779 17.783 23.2583 17.6984C23.1386 17.6139 23.0033 17.5539 22.8602 17.5221C22.5699 17.4476 22.2618 17.4906 22.003 17.6419C21.7442 17.7931 21.5556 18.0404 21.4781 18.33C21.1138 19.7614 23.3188 20.3035 23.6959 18.8571ZM32.8738 44.9207C32.9217 45.2144 33.0837 45.4773 33.3245 45.6523C33.5652 45.8272 33.8653 45.9001 34.1595 45.855C34.3067 45.8375 34.4489 45.7904 34.5775 45.7167C34.7062 45.6429 34.8186 45.5439 34.908 45.4257C34.9974 45.3074 35.0621 45.1723 35.0981 45.0285C35.134 44.8846 35.1406 44.735 35.1174 44.5885C34.9138 43.1743 32.6552 43.4228 32.8652 44.9207H32.8738ZM14.6766 29.0785C14.9659 27.6707 12.7609 27.2185 12.4416 28.6264C12.1159 30.0793 14.3702 30.555 14.6766 29.0785ZM33.0816 43.6285L33.3324 43.4764L29.7688 38.055C29.4666 37.6264 29.1645 37.1571 28.8731 36.7093C28.0374 35.4235 26.9702 33.9235 26.2031 32.6614L25.9481 32.8264C26.0124 32.9164 26.0809 33.0643 26.1624 33.1821L26.8288 34.1893C28.2859 36.4093 29.8609 38.7171 31.2859 40.9285C31.3845 41.0807 32.9166 43.4507 33.0902 43.6307L33.0816 43.6285ZM35.6831 11.64L37.5581 12.3128L39.3216 13.1143L39.0666 8.71068L35.6831 11.64ZM20.9338 51.2828L23.4688 49.1057C23.7679 48.8707 24.0541 48.6196 24.3259 48.3535L22.4509 47.6807L20.6788 46.8857L20.9338 51.2828ZM48.8574 24.4778C49.4081 23.8607 51.8231 21.3235 51.8574 21.1693L47.3402 20.9164L48.1652 22.6457C48.3045 22.9457 48.4031 23.2285 48.5188 23.5328C48.6345 23.8371 48.7331 24.195 48.8509 24.4778H48.8574ZM8.14307 38.835L12.6602 39.0878C12.5349 38.7937 12.3917 38.5074 12.2316 38.2307L11.4774 36.4671C11.3659 36.1735 11.2631 35.805 11.1474 35.5221C11.0938 35.58 11.0252 35.6357 10.9609 35.7043L9.46092 37.3435C9.4049 37.4168 9.34251 37.4849 9.27449 37.5471L8.14307 38.835ZM19.4166 29.88C19.3524 28.4657 19.2024 27.9514 19.7188 26.4257C19.8797 25.9517 20.0879 25.4951 20.3402 25.0628C20.4666 24.8485 20.5824 24.6621 20.7216 24.4585C20.8712 24.2788 21.0093 24.0898 21.1352 23.8928C20.7409 23.985 19.7831 24.5614 19.4209 24.78C18.9009 25.094 18.4185 25.4664 17.9831 25.89C17.2159 26.6185 16.2066 28.0478 16.0888 29.1278L19.4166 29.88ZM39.5016 46.7871C38.8795 47.119 38.24 47.4173 37.5859 47.6807C37.0459 47.895 36.0645 48.2978 35.4838 48.3985C35.6255 48.5714 35.7874 48.7268 35.9659 48.8614C36.1352 49.0028 36.2788 49.1571 36.4481 49.3028C36.6174 49.4485 36.7674 49.6028 36.9345 49.7443C37.3416 50.0828 39.1759 51.825 39.3152 51.8635L39.5016 46.7871ZM47.2502 39.2571L52.4574 39.0707C52.3278 38.9026 52.1844 38.7456 52.0288 38.6014C51.8852 38.4321 51.7266 38.2907 51.5766 38.1278L48.9131 35.3571C48.8424 35.4514 48.6216 36.1928 48.5574 36.3728C48.4352 36.7071 48.3152 37.035 48.1631 37.3628C48.0109 37.6907 47.8845 38.0185 47.7345 38.3121C47.5553 38.6199 47.3922 38.9367 47.2459 39.2614L47.2502 39.2571ZM20.4988 13.2107C20.8052 13.0821 21.1074 12.9 21.4202 12.7585C22.2324 12.3921 23.7024 11.7471 24.5209 11.6057C24.2198 11.2927 23.9029 10.9952 23.5716 10.7143C23.0102 10.2428 20.8524 8.18568 20.6895 8.14282L20.4988 13.2107ZM7.54735 20.925C7.67907 21.0912 7.82228 21.248 7.97592 21.3943C8.48592 21.9643 9.38592 22.8621 9.9795 23.4964C10.0545 23.5821 10.1359 23.6443 10.2109 23.7278C10.3609 23.8928 10.4788 24.0042 10.6395 24.18C10.7738 24.3481 10.9238 24.503 11.0874 24.6428C11.1581 24.5485 11.3788 23.8007 11.4431 23.6271C11.6826 22.97 11.9572 22.3262 12.2659 21.6985C12.4052 21.4221 12.6666 21.0021 12.7545 20.7493L7.54735 20.925ZM22.0352 41.3143C21.9195 41.0593 22.1574 39.1607 22.0759 38.5843L20.5031 41.7214C20.6595 41.9357 20.8288 41.9807 20.9681 42.4393C21.0088 42.585 20.9852 42.5978 21.0666 42.6943C21.2231 42.7843 24.0966 43.1228 24.5445 43.1785C25.7445 43.3328 26.9188 43.5407 28.1724 43.4571C28.1934 43.0912 28.1834 42.7242 28.1424 42.36C28.1204 42.0115 28.1559 41.6619 28.2474 41.325L22.0352 41.3143ZM15.9474 29.7642C15.6431 32.3014 16.5002 33.9064 17.4281 35.76C18.6452 38.175 18.4202 39.4028 18.7395 40.1078C18.9238 40.515 19.1509 41.0121 19.2966 41.4193L19.9224 41.4471C20.1104 41.0011 20.3251 40.5667 20.5652 40.1464C21.0066 39.3385 21.4224 38.4171 21.8659 37.575C22.0288 37.2685 22.0181 37.2235 21.9538 36.84C21.4952 33.9792 20.2245 32.7857 19.5966 30.5807C19.3309 30.48 16.1252 29.7557 15.9538 29.7664L15.9474 29.7642ZM45.8831 35.475C45.9924 35.085 46.1424 34.6992 46.2602 34.2878C46.3781 33.8764 46.4616 33.4842 46.5431 33.0557C46.7363 32.1332 46.834 31.1932 46.8345 30.2507L39.8745 30.2635C39.8454 30.7662 39.7889 31.267 39.7052 31.7635C39.6302 32.1642 39.3688 33.0128 39.3581 33.1092L45.8831 35.475ZM38.8588 25.7464C39.0624 25.7057 45.1224 22.9928 45.1909 22.9307C44.9595 22.1571 43.5666 20.2393 42.9859 19.5514C42.8295 19.365 42.2595 18.6943 42.0752 18.6064C41.7495 18.975 41.3081 19.3585 40.8495 19.8043C40.5816 20.0592 37.2731 23.2543 37.1916 23.3893C37.3309 23.5821 37.5174 23.7385 37.6738 23.9421C38.1368 24.496 38.5344 25.1014 38.8588 25.7464ZM41.6916 18.2164C41.5395 18.0021 40.8495 17.4428 40.5881 17.2393C39.8038 16.6179 38.9646 16.0692 38.0809 15.6C37.6385 15.3483 37.1763 15.1333 36.6988 14.9571C36.0366 16.4378 35.3466 18.1285 34.6909 19.6714L34.0481 21.2271C34.2388 21.3621 34.5988 21.4928 34.8088 21.6107C35.4107 21.9418 35.9784 22.3316 36.5038 22.7743C36.5852 22.8728 36.6858 22.9537 36.7995 23.0121L41.6916 18.2164ZM36.1888 14.7364C35.7709 14.6121 35.3316 14.4321 34.8709 14.2971C33.8552 14.0014 31.0395 13.44 30.2681 13.6243V18.9257C30.2681 19.3221 30.2316 19.8985 30.2681 20.265C30.2788 20.4193 30.2959 20.3893 30.4652 20.4021C32.2866 20.475 32.9788 20.9271 33.5359 21L36.1888 14.7364ZM40.6695 13.8943L41.5266 14.4707C42.656 15.26 43.6958 16.1704 44.6273 17.1857C45.0238 17.6143 45.5916 18.3107 45.9452 18.7843C46.1424 19.0457 46.3416 19.3843 46.5559 19.6221C46.7873 19.095 47.8909 15.8914 48.1224 15.24C48.3902 14.5007 48.6516 13.7764 48.9131 13.0478C49.0524 12.6514 49.6309 11.0914 49.6909 10.8193C49.3759 10.8878 43.5024 12.9064 42.8981 13.1143L40.6695 13.8943ZM49.2409 34.0585C49.5666 33.9407 49.9781 33.7135 50.3124 33.5614L53.5524 32.0357C54.8938 31.4293 56.2695 30.7285 57.5745 30.1414L57.7266 30.0793L57.8595 29.9764L49.2431 25.9285L49.5452 27.84C49.7475 29.5918 49.7028 31.3634 49.4124 33.1028C49.3392 33.416 49.2827 33.7329 49.2431 34.0521L49.2409 34.0585ZM10.3052 49.1743C10.6992 49.0721 11.0864 48.9454 11.4645 48.795L18.7845 46.3135C18.9743 46.2636 19.1577 46.1917 19.3309 46.0993C19.1981 45.9921 19.0181 45.885 18.8788 45.7993L17.6188 44.8778C17.0808 44.4578 16.5644 44.0108 16.0716 43.5385C15.5778 43.0564 15.1114 42.547 14.6745 42.0128C14.4602 41.7342 14.2459 41.4921 14.0316 41.1921C13.8452 40.9435 13.6416 40.6114 13.4381 40.3778C13.2474 40.8064 12.8531 42.0128 12.6495 42.5657C12.4759 43.035 10.3631 48.8914 10.2924 49.1743H10.3052ZM2.14307 30.0235L10.7574 34.0714L10.4552 32.16C10.2529 30.4081 10.2976 28.6365 10.5881 26.8971C10.6352 26.6143 10.7402 26.22 10.7574 25.9478C10.4316 26.0614 4.86021 28.7121 4.30307 28.9778C4.17449 29.04 2.25878 29.8993 2.14307 30.03L2.14307 30.0235ZM39.1202 26.2521C39.1202 26.3421 39.3452 26.8843 39.3924 27.0321C39.4845 27.3043 39.5616 27.57 39.6302 27.8635C39.7587 28.48 39.8404 29.1054 39.8745 29.7342H46.8345C46.8624 28.02 46.2366 24.8614 45.4288 23.4535L39.1202 26.2521ZM29.7281 13.0714H29.9659C39.5659 13.0714 47.3616 20.6507 47.3852 29.8714C47.3852 31.9392 46.9566 34.4678 46.1831 36.1693L45.1845 35.8178C45.0859 35.9378 44.8074 36.6321 44.7088 36.8357C44.3931 37.4752 44.0351 38.093 43.6374 38.685C43.4217 38.9634 43.2221 39.2539 43.0395 39.555L44.3038 40.4871C45.3824 39.119 46.2373 37.5886 46.8366 35.9528C47.5456 34.0527 47.9084 32.0409 47.9081 30.0128C47.9252 18.2935 36.3366 9.92354 24.7652 13.2985C24.2595 13.4304 23.765 13.6023 23.2866 13.8128L23.8781 15.2593L25.2002 14.8135C26.1476 14.5261 27.1196 14.3274 28.1038 14.22C28.6031 14.1621 29.2588 14.175 29.7238 14.1L29.7281 13.0714ZM25.6824 11.2843C26.3381 11.2178 27.0281 11.0464 27.7245 10.9693C29.5793 10.7606 31.4539 10.8074 33.2959 11.1085C33.6324 11.16 33.9881 11.2564 34.3181 11.2907L30.0109 2.14282L25.6824 11.2843ZM25.6824 48.7007L30.0109 57.8571L34.2966 48.705C33.9666 48.7393 33.6109 48.8293 33.2745 48.8871C31.4325 49.1882 29.5578 49.2351 27.7031 49.0264C27.0002 48.9492 26.3209 48.7778 25.6609 48.705L25.6824 48.7007ZM13.3588 19.74L13.9909 18.87C15.0406 17.4396 16.2807 16.1592 17.6766 15.0643C18.4202 14.4943 18.8081 14.2907 19.4638 13.815C19.3309 13.7143 15.1631 12.2378 14.6402 12.0514C14.2352 11.9057 10.0609 10.3671 9.7695 10.3007L13.3588 19.74ZM40.5366 46.185C40.6931 46.3028 42.5788 46.9414 42.9281 47.0721C43.5838 47.31 49.8709 49.6157 50.2352 49.695L46.6374 40.2664C46.5683 40.3326 46.5092 40.4084 46.4616 40.4914C45.9122 41.3028 45.3057 42.0741 44.6466 42.7993C43.6799 43.8421 42.602 44.7762 41.4324 45.585C41.1409 45.7821 40.8045 45.9857 40.5324 46.185H40.5366ZM23.8759 23.2671C26.0766 23.1428 27.3409 23.3014 29.0488 24.1885C30.3681 24.8595 31.4436 25.9275 32.1238 27.2421C32.5024 27.9487 32.7712 28.7089 32.9209 29.4964C33.1588 30.8593 32.1431 30.5378 32.7281 31.8535C33.0409 32.5671 33.4545 33.1393 33.7781 33.855C34.4938 35.3807 33.3024 34.9007 32.8266 35.4728C32.7688 35.8157 33.0066 35.9807 33.0238 36.33C33.0409 36.6792 32.7624 36.6857 32.4795 36.7821C33.4545 37.4721 32.5309 37.41 32.5545 38.2178C32.8154 38.1712 33.0786 38.139 33.3431 38.1214C34.0931 38.1214 35.1495 38.3764 35.7131 38.0764C36.8274 37.4935 35.7581 35.9335 35.9616 35.5157C36.0838 35.4021 36.4545 35.1493 36.2574 34.8535C36.1009 34.6178 35.6938 34.6178 35.6659 34.3693C35.9316 34.2385 36.1652 34.4142 36.4202 34.155C36.5659 33.6471 35.7774 33.1885 36.5595 32.85C37.0931 32.6164 37.6309 32.6507 37.3266 31.8878C36.9774 31.0007 36.3902 30.2764 36.0731 29.4064C35.7302 28.4678 36.1759 28.4335 36.3216 27.9771C36.6409 27.0043 35.4924 24.7093 34.8474 23.9057C32.5309 21.0557 28.5945 20.4235 25.0074 21.6L23.6488 22.125L23.8759 23.2671ZM29.1988 11.3057C25.3667 11.4518 21.6632 12.7266 18.5531 14.97C16.0521 16.7589 14.0348 19.1411 12.6823 21.9025C11.3298 24.664 10.6846 27.7182 10.8045 30.7907C11.2224 40.8364 19.9524 49.1464 30.8124 48.6943C41.1388 48.2657 49.6374 39.8293 49.1959 29.2093C49.034 25.4555 47.7235 21.842 45.4416 18.8571C45.0816 18.3878 44.7324 17.985 44.3702 17.5714C43.611 16.7441 42.7822 15.9835 41.8931 15.2978C41.4388 14.9528 40.9802 14.655 40.4809 14.3143C37.4102 12.2678 33.0988 11.1257 29.1966 11.3014L29.1988 11.3057Z" fill="#30A1E1"/>
</svg>
