<svg width="35" height="35" viewBox="0 0 35 35" fill="none" xmlns="http://www.w3.org/2000/svg">
<path d="M22.298 12.9066L15.4001 19.8191L12.7021 17.1066C12.4275 16.832 12.0551 16.6777 11.6667 16.6777C11.2784 16.6777 10.9059 16.832 10.6313 17.1066C10.3567 17.3812 10.2024 17.7536 10.2024 18.142C10.2024 18.3343 10.2403 18.5247 10.3139 18.7024C10.3875 18.88 10.4953 19.0414 10.6313 19.1774L14.3646 22.9107C14.5002 23.0474 14.6615 23.1559 14.8392 23.23C15.0169 23.304 15.2075 23.3421 15.4001 23.3421C15.5926 23.3421 15.7832 23.304 15.9609 23.23C16.1386 23.1559 16.2999 23.0474 16.4355 22.9107L24.3688 14.9774C24.5048 14.8414 24.6126 14.68 24.6862 14.5024C24.7598 14.3247 24.7977 14.1343 24.7977 13.942C24.7977 13.7497 24.7598 13.5593 24.6862 13.3816C24.6126 13.204 24.5048 13.0425 24.3688 12.9066C24.2328 12.7706 24.0714 12.6627 23.8937 12.5892C23.7161 12.5156 23.5257 12.4777 23.3334 12.4777C23.1411 12.4777 22.9507 12.5156 22.773 12.5892C22.5954 12.6627 22.4339 12.7706 22.298 12.9066ZM17.5 2.91699C15.5849 2.91699 13.6886 3.2942 11.9192 4.02708C10.1499 4.75996 8.54226 5.83416 7.18808 7.18835C4.45317 9.92326 2.91672 13.6326 2.91672 17.5003C2.90397 20.8678 4.06995 24.1336 6.21255 26.7316L3.29588 29.6482C3.09353 29.8533 2.95645 30.1137 2.90195 30.3966C2.84744 30.6795 2.87795 30.9722 2.98963 31.2378C3.11076 31.5002 3.30712 31.7207 3.55378 31.8713C3.80045 32.0219 4.0863 32.0958 4.37505 32.0837H17.5C21.3678 32.0837 25.0771 30.5472 27.812 27.8123C30.5469 25.0774 32.0834 21.3681 32.0834 17.5003C32.0834 13.6326 30.5469 9.92326 27.812 7.18835C25.0771 4.45345 21.3678 2.91699 17.5 2.91699ZM17.5 29.167H7.88963L9.24588 27.8107C9.5175 27.5375 9.66995 27.1679 9.66995 26.7826C9.66995 26.3973 9.5175 26.0277 9.24588 25.7545C7.33632 23.8471 6.14718 21.3365 5.88106 18.6507C5.61494 15.9648 6.2883 13.2697 7.78642 11.0246C9.28455 8.77955 11.5147 7.12335 14.0971 6.3382C16.6794 5.55306 19.454 5.68754 21.9483 6.71874C24.4426 7.74994 26.5021 9.61406 27.7761 11.9935C29.0501 14.3729 29.4597 17.1205 28.935 19.768C28.4104 22.4156 26.984 24.7994 24.899 26.5132C22.8139 28.227 20.1991 29.1649 17.5 29.167Z" fill="#8BC85F"/>
</svg>
